<svg width="318" height="38" viewBox="0 0 318 38" fill="none" xmlns="http://www.w3.org/2000/svg">
<rect width="318" height="38" rx="10" fill="#0074FC" fill-opacity="0.72"/>
<path d="M35.7504 25.16C34.9504 25.16 34.2091 25.016 33.5264 24.728C32.8438 24.4293 32.2464 24.0187 31.7344 23.496C31.2331 22.9733 30.8438 22.3653 30.5664 21.672C30.2891 20.9787 30.1504 20.2373 30.1504 19.448C30.1504 18.648 30.2891 17.9013 30.5664 17.208C30.8438 16.5147 31.2331 15.912 31.7344 15.4C32.2464 14.8773 32.8384 14.472 33.5104 14.184C34.1931 13.8853 34.9344 13.736 35.7344 13.736C36.6091 13.736 37.3771 13.8853 38.0384 14.184C38.6998 14.4827 39.2864 14.888 39.7984 15.4L38.7584 16.44C38.4064 16.0453 37.9744 15.736 37.4624 15.512C36.9611 15.288 36.3851 15.176 35.7344 15.176C35.1478 15.176 34.6091 15.2827 34.1184 15.496C33.6278 15.6987 33.2011 15.992 32.8384 16.376C32.4758 16.76 32.1931 17.2133 31.9904 17.736C31.7984 18.2587 31.7024 18.8293 31.7024 19.448C31.7024 20.0667 31.7984 20.6373 31.9904 21.16C32.1931 21.6827 32.4758 22.136 32.8384 22.52C33.2011 22.904 33.6278 23.2027 34.1184 23.416C34.6091 23.6187 35.1478 23.72 35.7344 23.72C36.4278 23.72 37.0304 23.608 37.5424 23.384C38.0544 23.1493 38.4864 22.8347 38.8384 22.44L39.8784 23.464C39.3664 23.9973 38.7638 24.4133 38.0704 24.712C37.3878 25.0107 36.6144 25.16 35.7504 25.16ZM41.4701 25V13.576H42.9101V25H41.4701ZM45.0329 25V17.4H46.4729V25H45.0329ZM45.7529 15.88C45.4863 15.88 45.2676 15.7947 45.0969 15.624C44.9263 15.4427 44.8409 15.2187 44.8409 14.952C44.8409 14.696 44.9263 14.4827 45.0969 14.312C45.2676 14.1307 45.4863 14.04 45.7529 14.04C46.0196 14.04 46.2383 14.1307 46.4089 14.312C46.5796 14.4827 46.6649 14.696 46.6649 14.952C46.6649 15.2187 46.5796 15.4427 46.4089 15.624C46.2383 15.7947 46.0196 15.88 45.7529 15.88ZM52.0671 25.16C51.3204 25.16 50.6431 24.984 50.0351 24.632C49.4377 24.28 48.9631 23.8053 48.6111 23.208C48.2697 22.6 48.0991 21.928 48.0991 21.192C48.0991 20.4453 48.2697 19.7733 48.6111 19.176C48.9631 18.5787 49.4377 18.1093 50.0351 17.768C50.6431 17.416 51.3204 17.24 52.0671 17.24C52.6537 17.24 53.1977 17.352 53.6991 17.576C54.2004 17.7893 54.6324 18.104 54.9951 18.52L54.0351 19.48C53.8004 19.2027 53.5124 18.9947 53.1711 18.856C52.8404 18.7067 52.4724 18.632 52.0671 18.632C51.5871 18.632 51.1604 18.744 50.7871 18.968C50.4137 19.1813 50.1204 19.48 49.9071 19.864C49.6937 20.248 49.5871 20.6907 49.5871 21.192C49.5871 21.6933 49.6937 22.136 49.9071 22.52C50.1204 22.904 50.4137 23.208 50.7871 23.432C51.1604 23.656 51.5871 23.768 52.0671 23.768C52.4724 23.768 52.8404 23.6987 53.1711 23.56C53.5124 23.4107 53.8057 23.1973 54.0511 22.92L54.9951 23.88C54.6431 24.2853 54.2111 24.6 53.6991 24.824C53.1977 25.048 52.6537 25.16 52.0671 25.16ZM61.2872 25L57.7352 21.112L61.2552 17.4H62.9992L59.0792 21.496L59.1432 20.664L63.1432 25H61.2872ZM56.4232 25V13.576H57.8632V25H56.4232ZM73.0961 25V20.568C73.0961 19.992 72.9147 19.5173 72.5521 19.144C72.1894 18.7707 71.7201 18.584 71.1441 18.584C70.7601 18.584 70.4187 18.6693 70.1201 18.84C69.8214 19.0107 69.5867 19.2453 69.4161 19.544C69.2454 19.8427 69.1601 20.184 69.1601 20.568L68.5681 20.232C68.5681 19.656 68.6961 19.144 68.9521 18.696C69.2081 18.248 69.5654 17.896 70.0241 17.64C70.4827 17.3733 71.0001 17.24 71.5761 17.24C72.1521 17.24 72.6587 17.368 73.0961 17.624C73.5441 17.88 73.8961 18.2373 74.1521 18.696C74.4081 19.1547 74.5361 19.6827 74.5361 20.28V25H73.0961ZM67.7201 25V13.576H69.1601V25H67.7201ZM80.0057 25.16C79.2484 25.16 78.5657 24.9893 77.9577 24.648C77.3497 24.296 76.8697 23.8213 76.5177 23.224C76.1657 22.6267 75.9897 21.9493 75.9897 21.192C75.9897 20.4453 76.1604 19.7733 76.5017 19.176C76.8537 18.5787 77.323 18.1093 77.9097 17.768C78.507 17.416 79.1737 17.24 79.9097 17.24C80.6137 17.24 81.2324 17.4 81.7657 17.72C82.3097 18.04 82.731 18.4827 83.0297 19.048C83.339 19.6133 83.4937 20.2533 83.4937 20.968C83.4937 21.0747 83.4884 21.192 83.4777 21.32C83.467 21.4373 83.4457 21.576 83.4137 21.736H76.9977V20.536H82.6457L82.1177 21C82.1177 20.488 82.027 20.056 81.8457 19.704C81.6644 19.3413 81.4084 19.064 81.0777 18.872C80.747 18.6693 80.347 18.568 79.8777 18.568C79.387 18.568 78.955 18.6747 78.5817 18.888C78.2084 19.1013 77.9204 19.4 77.7177 19.784C77.515 20.168 77.4137 20.6213 77.4137 21.144C77.4137 21.6773 77.5204 22.1467 77.7337 22.552C77.947 22.9467 78.251 23.256 78.6457 23.48C79.0404 23.6933 79.4937 23.8 80.0057 23.8C80.4324 23.8 80.8217 23.7253 81.1737 23.576C81.5364 23.4267 81.8457 23.2027 82.1017 22.904L83.0297 23.848C82.667 24.2747 82.219 24.6 81.6857 24.824C81.163 25.048 80.603 25.16 80.0057 25.16ZM85.0638 25V17.4H86.5038V25H85.0638ZM86.5038 20.664L85.9598 20.424C85.9598 19.4533 86.1838 18.68 86.6318 18.104C87.0798 17.528 87.7251 17.24 88.5678 17.24C88.9518 17.24 89.2985 17.3093 89.6078 17.448C89.9171 17.576 90.2051 17.7947 90.4718 18.104L89.5278 19.08C89.3678 18.9093 89.1918 18.7867 88.9998 18.712C88.8078 18.6373 88.5838 18.6 88.3278 18.6C87.7945 18.6 87.3571 18.7707 87.0158 19.112C86.6745 19.4533 86.5038 19.9707 86.5038 20.664ZM94.7557 25.16C93.9984 25.16 93.3157 24.9893 92.7077 24.648C92.0997 24.296 91.6197 23.8213 91.2677 23.224C90.9157 22.6267 90.7397 21.9493 90.7397 21.192C90.7397 20.4453 90.9104 19.7733 91.2517 19.176C91.6037 18.5787 92.073 18.1093 92.6597 17.768C93.257 17.416 93.9237 17.24 94.6597 17.24C95.3637 17.24 95.9824 17.4 96.5157 17.72C97.0597 18.04 97.481 18.4827 97.7797 19.048C98.089 19.6133 98.2437 20.2533 98.2437 20.968C98.2437 21.0747 98.2384 21.192 98.2277 21.32C98.217 21.4373 98.1957 21.576 98.1637 21.736H91.7477V20.536H97.3957L96.8677 21C96.8677 20.488 96.777 20.056 96.5957 19.704C96.4144 19.3413 96.1584 19.064 95.8277 18.872C95.497 18.6693 95.097 18.568 94.6277 18.568C94.137 18.568 93.705 18.6747 93.3317 18.888C92.9584 19.1013 92.6704 19.4 92.4677 19.784C92.265 20.168 92.1637 20.6213 92.1637 21.144C92.1637 21.6773 92.2704 22.1467 92.4837 22.552C92.697 22.9467 93.001 23.256 93.3957 23.48C93.7904 23.6933 94.2437 23.8 94.7557 23.8C95.1824 23.8 95.5717 23.7253 95.9237 23.576C96.2864 23.4267 96.5957 23.2027 96.8517 22.904L97.7797 23.848C97.417 24.2747 96.969 24.6 96.4357 24.824C95.913 25.048 95.353 25.16 94.7557 25.16ZM104.31 25V14.216H105.75V25H104.31ZM102.438 18.712V17.4H107.622V18.712H102.438ZM112.27 25.16C111.524 25.16 110.852 24.984 110.254 24.632C109.657 24.28 109.182 23.8053 108.83 23.208C108.478 22.6 108.302 21.9227 108.302 21.176C108.302 20.44 108.478 19.7787 108.83 19.192C109.182 18.5947 109.657 18.12 110.254 17.768C110.852 17.416 111.524 17.24 112.27 17.24C113.006 17.24 113.673 17.416 114.27 17.768C114.878 18.1093 115.358 18.5787 115.71 19.176C116.062 19.7733 116.238 20.44 116.238 21.176C116.238 21.9227 116.062 22.6 115.71 23.208C115.358 23.8053 114.878 24.28 114.27 24.632C113.673 24.984 113.006 25.16 112.27 25.16ZM112.27 23.768C112.75 23.768 113.177 23.656 113.55 23.432C113.924 23.208 114.217 22.904 114.43 22.52C114.644 22.1253 114.75 21.6773 114.75 21.176C114.75 20.6853 114.638 20.248 114.414 19.864C114.201 19.48 113.908 19.1813 113.534 18.968C113.172 18.744 112.75 18.632 112.27 18.632C111.79 18.632 111.364 18.744 110.99 18.968C110.617 19.1813 110.324 19.48 110.11 19.864C109.897 20.248 109.79 20.6853 109.79 21.176C109.79 21.6773 109.897 22.1253 110.11 22.52C110.324 22.904 110.617 23.208 110.99 23.432C111.364 23.656 111.79 23.768 112.27 23.768ZM123.797 25L120.309 17.4H121.909L124.709 23.816H123.781L126.597 17.4H128.133L124.645 25H123.797ZM129.377 25V17.4H130.817V25H129.377ZM130.097 15.88C129.83 15.88 129.611 15.7947 129.441 15.624C129.27 15.4427 129.185 15.2187 129.185 14.952C129.185 14.696 129.27 14.4827 129.441 14.312C129.611 14.1307 129.83 14.04 130.097 14.04C130.363 14.04 130.582 14.1307 130.753 14.312C130.923 14.4827 131.009 14.696 131.009 14.952C131.009 15.2187 130.923 15.4427 130.753 15.624C130.582 15.7947 130.363 15.88 130.097 15.88ZM136.459 25.16C135.701 25.16 135.019 24.9893 134.411 24.648C133.803 24.296 133.323 23.8213 132.971 23.224C132.619 22.6267 132.443 21.9493 132.443 21.192C132.443 20.4453 132.613 19.7733 132.955 19.176C133.307 18.5787 133.776 18.1093 134.363 17.768C134.96 17.416 135.627 17.24 136.363 17.24C137.067 17.24 137.685 17.4 138.219 17.72C138.763 18.04 139.184 18.4827 139.483 19.048C139.792 19.6133 139.947 20.2533 139.947 20.968C139.947 21.0747 139.941 21.192 139.931 21.32C139.92 21.4373 139.899 21.576 139.867 21.736H133.451V20.536H139.099L138.571 21C138.571 20.488 138.48 20.056 138.299 19.704C138.117 19.3413 137.861 19.064 137.531 18.872C137.2 18.6693 136.8 18.568 136.331 18.568C135.84 18.568 135.408 18.6747 135.035 18.888C134.661 19.1013 134.373 19.4 134.171 19.784C133.968 20.168 133.867 20.6213 133.867 21.144C133.867 21.6773 133.973 22.1467 134.187 22.552C134.4 22.9467 134.704 23.256 135.099 23.48C135.493 23.6933 135.947 23.8 136.459 23.8C136.885 23.8 137.275 23.7253 137.627 23.576C137.989 23.4267 138.299 23.2027 138.555 22.904L139.483 23.848C139.12 24.2747 138.672 24.6 138.139 24.824C137.616 25.048 137.056 25.16 136.459 25.16ZM143.599 25L140.591 17.4H142.095L144.271 23.32H143.791L145.951 17.4H146.783L148.943 23.32H148.463L150.639 17.4H152.143L149.151 25H148.303L146.111 19.256H146.639L144.431 25H143.599ZM158.463 25V13.896H159.951V25H158.463ZM156.191 15.24V13.896H159.791V15.24H156.191ZM162.298 21.608V20.248H167.562V21.608H162.298ZM170.51 25V13.896H171.998V25H170.51ZM168.238 15.24V13.896H171.838V15.24H168.238ZM182.969 25.16C182.169 25.16 181.428 25.016 180.745 24.728C180.063 24.4293 179.465 24.0187 178.953 23.496C178.452 22.9733 178.063 22.3653 177.785 21.672C177.508 20.9787 177.369 20.2373 177.369 19.448C177.369 18.648 177.508 17.9013 177.785 17.208C178.063 16.5147 178.452 15.912 178.953 15.4C179.465 14.8773 180.057 14.472 180.729 14.184C181.412 13.8853 182.153 13.736 182.953 13.736C183.828 13.736 184.596 13.8853 185.257 14.184C185.919 14.4827 186.505 14.888 187.017 15.4L185.977 16.44C185.625 16.0453 185.193 15.736 184.681 15.512C184.18 15.288 183.604 15.176 182.953 15.176C182.367 15.176 181.828 15.2827 181.337 15.496C180.847 15.6987 180.42 15.992 180.057 16.376C179.695 16.76 179.412 17.2133 179.209 17.736C179.017 18.2587 178.921 18.8293 178.921 19.448C178.921 20.0667 179.017 20.6373 179.209 21.16C179.412 21.6827 179.695 22.136 180.057 22.52C180.42 22.904 180.847 23.2027 181.337 23.416C181.828 23.6187 182.367 23.72 182.953 23.72C183.647 23.72 184.249 23.608 184.761 23.384C185.273 23.1493 185.705 22.8347 186.057 22.44L187.097 23.464C186.585 23.9973 185.983 24.4133 185.289 24.712C184.607 25.0107 183.833 25.16 182.969 25.16ZM191.895 25.16C191.149 25.16 190.477 24.984 189.879 24.632C189.282 24.28 188.807 23.8053 188.455 23.208C188.103 22.6 187.927 21.9227 187.927 21.176C187.927 20.44 188.103 19.7787 188.455 19.192C188.807 18.5947 189.282 18.12 189.879 17.768C190.477 17.416 191.149 17.24 191.895 17.24C192.631 17.24 193.298 17.416 193.895 17.768C194.503 18.1093 194.983 18.5787 195.335 19.176C195.687 19.7733 195.863 20.44 195.863 21.176C195.863 21.9227 195.687 22.6 195.335 23.208C194.983 23.8053 194.503 24.28 193.895 24.632C193.298 24.984 192.631 25.16 191.895 25.16ZM191.895 23.768C192.375 23.768 192.802 23.656 193.175 23.432C193.549 23.208 193.842 22.904 194.055 22.52C194.269 22.1253 194.375 21.6773 194.375 21.176C194.375 20.6853 194.263 20.248 194.039 19.864C193.826 19.48 193.533 19.1813 193.159 18.968C192.797 18.744 192.375 18.632 191.895 18.632C191.415 18.632 190.989 18.744 190.615 18.968C190.242 19.1813 189.949 19.48 189.735 19.864C189.522 20.248 189.415 20.6853 189.415 21.176C189.415 21.6773 189.522 22.1253 189.735 22.52C189.949 22.904 190.242 23.208 190.615 23.432C190.989 23.656 191.415 23.768 191.895 23.768ZM202.862 25V20.568C202.862 19.992 202.68 19.5173 202.318 19.144C201.955 18.7707 201.486 18.584 200.91 18.584C200.526 18.584 200.184 18.6693 199.886 18.84C199.587 19.0107 199.352 19.2453 199.182 19.544C199.011 19.8427 198.926 20.184 198.926 20.568L198.334 20.232C198.334 19.656 198.462 19.144 198.718 18.696C198.974 18.248 199.331 17.896 199.79 17.64C200.248 17.3733 200.766 17.24 201.342 17.24C201.918 17.24 202.424 17.384 202.862 17.672C203.31 17.96 203.662 18.3387 203.918 18.808C204.174 19.2667 204.302 19.7573 204.302 20.28V25H202.862ZM197.486 25V17.4H198.926V25H197.486ZM211.627 25V20.568C211.627 19.992 211.446 19.5173 211.083 19.144C210.721 18.7707 210.251 18.584 209.675 18.584C209.291 18.584 208.95 18.6693 208.651 18.84C208.353 19.0107 208.118 19.2453 207.947 19.544C207.777 19.8427 207.691 20.184 207.691 20.568L207.099 20.232C207.099 19.656 207.227 19.144 207.483 18.696C207.739 18.248 208.097 17.896 208.555 17.64C209.014 17.3733 209.531 17.24 210.107 17.24C210.683 17.24 211.19 17.384 211.627 17.672C212.075 17.96 212.427 18.3387 212.683 18.808C212.939 19.2667 213.067 19.7573 213.067 20.28V25H211.627ZM206.251 25V17.4H207.691V25H206.251ZM218.537 25.16C217.78 25.16 217.097 24.9893 216.489 24.648C215.881 24.296 215.401 23.8213 215.049 23.224C214.697 22.6267 214.521 21.9493 214.521 21.192C214.521 20.4453 214.692 19.7733 215.033 19.176C215.385 18.5787 215.854 18.1093 216.441 17.768C217.038 17.416 217.705 17.24 218.441 17.24C219.145 17.24 219.764 17.4 220.297 17.72C220.841 18.04 221.262 18.4827 221.561 19.048C221.87 19.6133 222.025 20.2533 222.025 20.968C222.025 21.0747 222.02 21.192 222.009 21.32C221.998 21.4373 221.977 21.576 221.945 21.736H215.529V20.536H221.177L220.649 21C220.649 20.488 220.558 20.056 220.377 19.704C220.196 19.3413 219.94 19.064 219.609 18.872C219.278 18.6693 218.878 18.568 218.409 18.568C217.918 18.568 217.486 18.6747 217.113 18.888C216.74 19.1013 216.452 19.4 216.249 19.784C216.046 20.168 215.945 20.6213 215.945 21.144C215.945 21.6773 216.052 22.1467 216.265 22.552C216.478 22.9467 216.782 23.256 217.177 23.48C217.572 23.6933 218.025 23.8 218.537 23.8C218.964 23.8 219.353 23.7253 219.705 23.576C220.068 23.4267 220.377 23.2027 220.633 22.904L221.561 23.848C221.198 24.2747 220.75 24.6 220.217 24.824C219.694 25.048 219.134 25.16 218.537 25.16ZM227.067 25.16C226.32 25.16 225.643 24.984 225.035 24.632C224.438 24.28 223.963 23.8053 223.611 23.208C223.27 22.6 223.099 21.928 223.099 21.192C223.099 20.4453 223.27 19.7733 223.611 19.176C223.963 18.5787 224.438 18.1093 225.035 17.768C225.643 17.416 226.32 17.24 227.067 17.24C227.654 17.24 228.198 17.352 228.699 17.576C229.2 17.7893 229.632 18.104 229.995 18.52L229.035 19.48C228.8 19.2027 228.512 18.9947 228.171 18.856C227.84 18.7067 227.472 18.632 227.067 18.632C226.587 18.632 226.16 18.744 225.787 18.968C225.414 19.1813 225.12 19.48 224.907 19.864C224.694 20.248 224.587 20.6907 224.587 21.192C224.587 21.6933 224.694 22.136 224.907 22.52C225.12 22.904 225.414 23.208 225.787 23.432C226.16 23.656 226.587 23.768 227.067 23.768C227.472 23.768 227.84 23.6987 228.171 23.56C228.512 23.4107 228.806 23.1973 229.051 22.92L229.995 23.88C229.643 24.2853 229.211 24.6 228.699 24.824C228.198 25.048 227.654 25.16 227.067 25.16ZM232.497 25V14.216H233.937V25H232.497ZM230.625 18.712V17.4H235.809V18.712H230.625ZM241.796 25V23.624H244.884C245.706 23.624 246.426 23.448 247.044 23.096C247.663 22.7333 248.143 22.2373 248.484 21.608C248.836 20.9787 249.012 20.2533 249.012 19.432C249.012 18.6213 248.836 17.9013 248.484 17.272C248.132 16.6427 247.647 16.152 247.028 15.8C246.41 15.448 245.695 15.272 244.884 15.272H241.812V13.896H244.916C245.727 13.896 246.474 14.0347 247.156 14.312C247.85 14.5893 248.447 14.9787 248.948 15.48C249.46 15.9813 249.855 16.568 250.132 17.24C250.42 17.912 250.564 18.648 250.564 19.448C250.564 20.2373 250.42 20.9733 250.132 21.656C249.855 22.328 249.466 22.9147 248.964 23.416C248.463 23.9173 247.866 24.3067 247.172 24.584C246.49 24.8613 245.748 25 244.948 25H241.796ZM240.804 25V13.896H242.308V25H240.804ZM255.912 25.16C255.155 25.16 254.472 24.9893 253.864 24.648C253.256 24.296 252.776 23.8213 252.424 23.224C252.072 22.6267 251.896 21.9493 251.896 21.192C251.896 20.4453 252.067 19.7733 252.408 19.176C252.76 18.5787 253.229 18.1093 253.816 17.768C254.413 17.416 255.08 17.24 255.816 17.24C256.52 17.24 257.139 17.4 257.672 17.72C258.216 18.04 258.637 18.4827 258.936 19.048C259.245 19.6133 259.4 20.2533 259.4 20.968C259.4 21.0747 259.395 21.192 259.384 21.32C259.373 21.4373 259.352 21.576 259.32 21.736H252.904V20.536H258.552L258.024 21C258.024 20.488 257.933 20.056 257.752 19.704C257.571 19.3413 257.315 19.064 256.984 18.872C256.653 18.6693 256.253 18.568 255.784 18.568C255.293 18.568 254.861 18.6747 254.488 18.888C254.115 19.1013 253.827 19.4 253.624 19.784C253.421 20.168 253.32 20.6213 253.32 21.144C253.32 21.6773 253.427 22.1467 253.64 22.552C253.853 22.9467 254.157 23.256 254.552 23.48C254.947 23.6933 255.4 23.8 255.912 23.8C256.339 23.8 256.728 23.7253 257.08 23.576C257.443 23.4267 257.752 23.2027 258.008 22.904L258.936 23.848C258.573 24.2747 258.125 24.6 257.592 24.824C257.069 25.048 256.509 25.16 255.912 25.16ZM261.904 25V14.216H263.344V25H261.904ZM260.032 18.712V17.4H265.216V18.712H260.032ZM269.624 25.16C268.931 25.16 268.301 24.9893 267.736 24.648C267.171 24.296 266.723 23.8213 266.392 23.224C266.072 22.6267 265.912 21.9547 265.912 21.208C265.912 20.4613 266.072 19.7893 266.392 19.192C266.723 18.5947 267.165 18.12 267.72 17.768C268.285 17.416 268.92 17.24 269.624 17.24C270.2 17.24 270.712 17.3627 271.16 17.608C271.619 17.8427 271.987 18.1733 272.264 18.6C272.541 19.016 272.696 19.5013 272.728 20.056V22.344C272.696 22.888 272.541 23.3733 272.264 23.8C271.997 24.2267 271.635 24.5627 271.176 24.808C270.728 25.0427 270.211 25.16 269.624 25.16ZM269.864 23.8C270.579 23.8 271.155 23.56 271.592 23.08C272.029 22.5893 272.248 21.9653 272.248 21.208C272.248 20.6853 272.147 20.232 271.944 19.848C271.752 19.4533 271.475 19.1493 271.112 18.936C270.749 18.712 270.328 18.6 269.848 18.6C269.368 18.6 268.941 18.712 268.568 18.936C268.205 19.16 267.917 19.4693 267.704 19.864C267.501 20.248 267.4 20.6907 267.4 21.192C267.4 21.704 267.501 22.1573 267.704 22.552C267.917 22.936 268.211 23.24 268.584 23.464C268.957 23.688 269.384 23.8 269.864 23.8ZM272.152 25V22.952L272.424 21.096L272.152 19.256V17.4H273.608V25H272.152ZM275.72 25V17.4H277.16V25H275.72ZM276.44 15.88C276.174 15.88 275.955 15.7947 275.784 15.624C275.614 15.4427 275.528 15.2187 275.528 14.952C275.528 14.696 275.614 14.4827 275.784 14.312C275.955 14.1307 276.174 14.04 276.44 14.04C276.707 14.04 276.926 14.1307 277.096 14.312C277.267 14.4827 277.352 14.696 277.352 14.952C277.352 15.2187 277.267 15.4427 277.096 15.624C276.926 15.7947 276.707 15.88 276.44 15.88ZM279.283 25V13.576H280.723V25H279.283ZM285.245 25.16C284.819 25.16 284.413 25.1067 284.029 25C283.656 24.8827 283.309 24.7227 282.989 24.52C282.669 24.3067 282.392 24.056 282.157 23.768L283.085 22.84C283.363 23.1813 283.683 23.4373 284.045 23.608C284.408 23.768 284.813 23.848 285.261 23.848C285.709 23.848 286.056 23.7733 286.301 23.624C286.547 23.464 286.669 23.2453 286.669 22.968C286.669 22.6907 286.568 22.4773 286.365 22.328C286.173 22.168 285.923 22.04 285.613 21.944C285.304 21.8373 284.973 21.736 284.621 21.64C284.28 21.5333 283.955 21.4 283.645 21.24C283.336 21.08 283.08 20.8613 282.877 20.584C282.685 20.3067 282.589 19.9387 282.589 19.48C282.589 19.0213 282.701 18.6267 282.925 18.296C283.149 17.9547 283.459 17.6933 283.853 17.512C284.259 17.3307 284.744 17.24 285.309 17.24C285.907 17.24 286.435 17.3467 286.893 17.56C287.363 17.7627 287.747 18.072 288.045 18.488L287.117 19.416C286.904 19.1387 286.637 18.9253 286.317 18.776C286.008 18.6267 285.656 18.552 285.261 18.552C284.845 18.552 284.525 18.6267 284.301 18.776C284.088 18.9147 283.981 19.112 283.981 19.368C283.981 19.624 284.077 19.8213 284.269 19.96C284.461 20.0987 284.712 20.216 285.021 20.312C285.341 20.408 285.672 20.5093 286.013 20.616C286.355 20.712 286.68 20.8453 286.989 21.016C287.299 21.1867 287.549 21.416 287.741 21.704C287.944 21.992 288.045 22.3707 288.045 22.84C288.045 23.5547 287.789 24.12 287.277 24.536C286.776 24.952 286.099 25.16 285.245 25.16Z" fill="white"/>
</svg>
