<svg width="318" height="38" viewBox="0 0 318 38" fill="none" xmlns="http://www.w3.org/2000/svg">
<rect width="318" height="38" rx="10" fill="#0074FC" fill-opacity="0.72"/>
<path d="M34.9614 25.16C34.1614 25.16 33.42 25.016 32.7374 24.728C32.0547 24.4293 31.4574 24.0187 30.9454 23.496C30.444 22.9733 30.0547 22.3653 29.7774 21.672C29.5 20.9787 29.3614 20.2373 29.3614 19.448C29.3614 18.648 29.5 17.9013 29.7774 17.208C30.0547 16.5147 30.444 15.912 30.9454 15.4C31.4574 14.8773 32.0494 14.472 32.7214 14.184C33.404 13.8853 34.1454 13.736 34.9454 13.736C35.82 13.736 36.588 13.8853 37.2494 14.184C37.9107 14.4827 38.4974 14.888 39.0094 15.4L37.9694 16.44C37.6174 16.0453 37.1854 15.736 36.6734 15.512C36.172 15.288 35.596 15.176 34.9454 15.176C34.3587 15.176 33.82 15.2827 33.3294 15.496C32.8387 15.6987 32.412 15.992 32.0494 16.376C31.6867 16.76 31.404 17.2133 31.2014 17.736C31.0094 18.2587 30.9134 18.8293 30.9134 19.448C30.9134 20.0667 31.0094 20.6373 31.2014 21.16C31.404 21.6827 31.6867 22.136 32.0494 22.52C32.412 22.904 32.8387 23.2027 33.3294 23.416C33.82 23.6187 34.3587 23.72 34.9454 23.72C35.6387 23.72 36.2414 23.608 36.7534 23.384C37.2654 23.1493 37.6974 22.8347 38.0494 22.44L39.0894 23.464C38.5774 23.9973 37.9747 24.4133 37.2814 24.712C36.5987 25.0107 35.8254 25.16 34.9614 25.16ZM40.681 25V13.576H42.121V25H40.681ZM44.2439 25V17.4H45.6839V25H44.2439ZM44.9639 15.88C44.6972 15.88 44.4785 15.7947 44.3079 15.624C44.1372 15.4427 44.0519 15.2187 44.0519 14.952C44.0519 14.696 44.1372 14.4827 44.3079 14.312C44.4785 14.1307 44.6972 14.04 44.9639 14.04C45.2305 14.04 45.4492 14.1307 45.6199 14.312C45.7905 14.4827 45.8759 14.696 45.8759 14.952C45.8759 15.2187 45.7905 15.4427 45.6199 15.624C45.4492 15.7947 45.2305 15.88 44.9639 15.88ZM51.278 25.16C50.5313 25.16 49.854 24.984 49.246 24.632C48.6487 24.28 48.174 23.8053 47.822 23.208C47.4807 22.6 47.31 21.928 47.31 21.192C47.31 20.4453 47.4807 19.7733 47.822 19.176C48.174 18.5787 48.6487 18.1093 49.246 17.768C49.854 17.416 50.5313 17.24 51.278 17.24C51.8647 17.24 52.4087 17.352 52.91 17.576C53.4113 17.7893 53.8433 18.104 54.206 18.52L53.246 19.48C53.0113 19.2027 52.7233 18.9947 52.382 18.856C52.0513 18.7067 51.6833 18.632 51.278 18.632C50.798 18.632 50.3713 18.744 49.998 18.968C49.6247 19.1813 49.3313 19.48 49.118 19.864C48.9047 20.248 48.798 20.6907 48.798 21.192C48.798 21.6933 48.9047 22.136 49.118 22.52C49.3313 22.904 49.6247 23.208 49.998 23.432C50.3713 23.656 50.798 23.768 51.278 23.768C51.6833 23.768 52.0513 23.6987 52.382 23.56C52.7233 23.4107 53.0167 23.1973 53.262 22.92L54.206 23.88C53.854 24.2853 53.422 24.6 52.91 24.824C52.4087 25.048 51.8647 25.16 51.278 25.16ZM60.4981 25L56.9461 21.112L60.4661 17.4H62.2101L58.2901 21.496L58.3541 20.664L62.3541 25H60.4981ZM55.6341 25V13.576H57.0741V25H55.6341ZM72.307 25V20.568C72.307 19.992 72.1257 19.5173 71.763 19.144C71.4003 18.7707 70.931 18.584 70.355 18.584C69.971 18.584 69.6297 18.6693 69.331 18.84C69.0323 19.0107 68.7977 19.2453 68.627 19.544C68.4563 19.8427 68.371 20.184 68.371 20.568L67.779 20.232C67.779 19.656 67.907 19.144 68.163 18.696C68.419 18.248 68.7763 17.896 69.235 17.64C69.6937 17.3733 70.211 17.24 70.787 17.24C71.363 17.24 71.8697 17.368 72.307 17.624C72.755 17.88 73.107 18.2373 73.363 18.696C73.619 19.1547 73.747 19.6827 73.747 20.28V25H72.307ZM66.931 25V13.576H68.371V25H66.931ZM79.2166 25.16C78.4593 25.16 77.7766 24.9893 77.1686 24.648C76.5606 24.296 76.0806 23.8213 75.7286 23.224C75.3766 22.6267 75.2006 21.9493 75.2006 21.192C75.2006 20.4453 75.3713 19.7733 75.7126 19.176C76.0646 18.5787 76.534 18.1093 77.1206 17.768C77.718 17.416 78.3846 17.24 79.1206 17.24C79.8246 17.24 80.4433 17.4 80.9766 17.72C81.5206 18.04 81.942 18.4827 82.2406 19.048C82.55 19.6133 82.7046 20.2533 82.7046 20.968C82.7046 21.0747 82.6993 21.192 82.6886 21.32C82.678 21.4373 82.6566 21.576 82.6246 21.736H76.2086V20.536H81.8566L81.3286 21C81.3286 20.488 81.238 20.056 81.0566 19.704C80.8753 19.3413 80.6193 19.064 80.2886 18.872C79.958 18.6693 79.558 18.568 79.0886 18.568C78.598 18.568 78.166 18.6747 77.7926 18.888C77.4193 19.1013 77.1313 19.4 76.9286 19.784C76.726 20.168 76.6246 20.6213 76.6246 21.144C76.6246 21.6773 76.7313 22.1467 76.9446 22.552C77.158 22.9467 77.462 23.256 77.8566 23.48C78.2513 23.6933 78.7046 23.8 79.2166 23.8C79.6433 23.8 80.0326 23.7253 80.3846 23.576C80.7473 23.4267 81.0566 23.2027 81.3126 22.904L82.2406 23.848C81.878 24.2747 81.43 24.6 80.8966 24.824C80.374 25.048 79.814 25.16 79.2166 25.16ZM84.2747 25V17.4H85.7148V25H84.2747ZM85.7148 20.664L85.1708 20.424C85.1708 19.4533 85.3948 18.68 85.8428 18.104C86.2908 17.528 86.9361 17.24 87.7788 17.24C88.1628 17.24 88.5094 17.3093 88.8188 17.448C89.1281 17.576 89.4161 17.7947 89.6828 18.104L88.7388 19.08C88.5788 18.9093 88.4028 18.7867 88.2108 18.712C88.0188 18.6373 87.7948 18.6 87.5388 18.6C87.0054 18.6 86.5681 18.7707 86.2268 19.112C85.8854 19.4533 85.7148 19.9707 85.7148 20.664ZM93.9666 25.16C93.2093 25.16 92.5266 24.9893 91.9186 24.648C91.3106 24.296 90.8306 23.8213 90.4786 23.224C90.1266 22.6267 89.9506 21.9493 89.9506 21.192C89.9506 20.4453 90.1213 19.7733 90.4626 19.176C90.8146 18.5787 91.284 18.1093 91.8706 17.768C92.468 17.416 93.1346 17.24 93.8706 17.24C94.5746 17.24 95.1933 17.4 95.7266 17.72C96.2706 18.04 96.692 18.4827 96.9906 19.048C97.3 19.6133 97.4546 20.2533 97.4546 20.968C97.4546 21.0747 97.4493 21.192 97.4386 21.32C97.428 21.4373 97.4066 21.576 97.3746 21.736H90.9586V20.536H96.6066L96.0786 21C96.0786 20.488 95.988 20.056 95.8066 19.704C95.6253 19.3413 95.3693 19.064 95.0386 18.872C94.708 18.6693 94.308 18.568 93.8386 18.568C93.348 18.568 92.916 18.6747 92.5426 18.888C92.1693 19.1013 91.8813 19.4 91.6786 19.784C91.476 20.168 91.3746 20.6213 91.3746 21.144C91.3746 21.6773 91.4813 22.1467 91.6946 22.552C91.908 22.9467 92.212 23.256 92.6066 23.48C93.0013 23.6933 93.4546 23.8 93.9666 23.8C94.3933 23.8 94.7826 23.7253 95.1346 23.576C95.4973 23.4267 95.8066 23.2027 96.0626 22.904L96.9906 23.848C96.628 24.2747 96.18 24.6 95.6466 24.824C95.124 25.048 94.564 25.16 93.9666 25.16ZM103.521 25V14.216H104.961V25H103.521ZM101.649 18.712V17.4H106.833V18.712H101.649ZM111.481 25.16C110.734 25.16 110.062 24.984 109.465 24.632C108.868 24.28 108.393 23.8053 108.041 23.208C107.689 22.6 107.513 21.9227 107.513 21.176C107.513 20.44 107.689 19.7787 108.041 19.192C108.393 18.5947 108.868 18.12 109.465 17.768C110.062 17.416 110.734 17.24 111.481 17.24C112.217 17.24 112.884 17.416 113.481 17.768C114.089 18.1093 114.569 18.5787 114.921 19.176C115.273 19.7733 115.449 20.44 115.449 21.176C115.449 21.9227 115.273 22.6 114.921 23.208C114.569 23.8053 114.089 24.28 113.481 24.632C112.884 24.984 112.217 25.16 111.481 25.16ZM111.481 23.768C111.961 23.768 112.388 23.656 112.761 23.432C113.134 23.208 113.428 22.904 113.641 22.52C113.854 22.1253 113.961 21.6773 113.961 21.176C113.961 20.6853 113.849 20.248 113.625 19.864C113.412 19.48 113.118 19.1813 112.745 18.968C112.382 18.744 111.961 18.632 111.481 18.632C111.001 18.632 110.574 18.744 110.201 18.968C109.828 19.1813 109.534 19.48 109.321 19.864C109.108 20.248 109.001 20.6853 109.001 21.176C109.001 21.6773 109.108 22.1253 109.321 22.52C109.534 22.904 109.828 23.208 110.201 23.432C110.574 23.656 111.001 23.768 111.481 23.768ZM123.632 25.16C122.938 25.16 122.309 24.9893 121.744 24.648C121.178 24.296 120.73 23.8213 120.4 23.224C120.08 22.6267 119.92 21.9547 119.92 21.208C119.92 20.4613 120.08 19.7893 120.4 19.192C120.73 18.5947 121.173 18.12 121.728 17.768C122.293 17.416 122.928 17.24 123.632 17.24C124.208 17.24 124.72 17.3627 125.168 17.608C125.626 17.8427 125.994 18.1733 126.272 18.6C126.549 19.016 126.704 19.5013 126.736 20.056V22.344C126.704 22.888 126.549 23.3733 126.272 23.8C126.005 24.2267 125.642 24.5627 125.184 24.808C124.736 25.0427 124.218 25.16 123.632 25.16ZM123.872 23.8C124.586 23.8 125.162 23.56 125.6 23.08C126.037 22.5893 126.256 21.9653 126.256 21.208C126.256 20.6853 126.154 20.232 125.952 19.848C125.76 19.4533 125.482 19.1493 125.12 18.936C124.757 18.712 124.336 18.6 123.856 18.6C123.376 18.6 122.949 18.712 122.576 18.936C122.213 19.16 121.925 19.4693 121.712 19.864C121.509 20.248 121.408 20.6907 121.408 21.192C121.408 21.704 121.509 22.1573 121.712 22.552C121.925 22.936 122.218 23.24 122.592 23.464C122.965 23.688 123.392 23.8 123.872 23.8ZM126.16 25V22.952L126.432 21.096L126.16 19.256V17.4H127.616V25H126.16ZM132.928 25.16C132.224 25.16 131.595 24.9893 131.04 24.648C130.486 24.296 130.043 23.8213 129.712 23.224C129.392 22.6267 129.232 21.9547 129.232 21.208C129.232 20.4613 129.392 19.7893 129.712 19.192C130.043 18.5947 130.486 18.12 131.04 17.768C131.595 17.416 132.224 17.24 132.928 17.24C133.494 17.24 134.006 17.3627 134.464 17.608C134.923 17.8427 135.291 18.1733 135.568 18.6C135.856 19.016 136.016 19.5013 136.048 20.056V22.344C136.016 22.888 135.862 23.3733 135.584 23.8C135.307 24.2267 134.939 24.5627 134.48 24.808C134.022 25.0427 133.504 25.16 132.928 25.16ZM133.168 23.8C133.648 23.8 134.064 23.688 134.416 23.464C134.779 23.24 135.062 22.936 135.264 22.552C135.467 22.1573 135.568 21.7093 135.568 21.208C135.568 20.6853 135.462 20.232 135.248 19.848C135.046 19.464 134.763 19.16 134.4 18.936C134.048 18.712 133.632 18.6 133.152 18.6C132.672 18.6 132.251 18.712 131.888 18.936C131.526 19.16 131.238 19.4693 131.024 19.864C130.822 20.248 130.72 20.6907 130.72 21.192C130.72 21.704 130.822 22.1573 131.024 22.552C131.238 22.936 131.526 23.24 131.888 23.464C132.262 23.688 132.688 23.8 133.168 23.8ZM136.928 25H135.472V22.952L135.744 21.096L135.472 19.256V13.576H136.928V25ZM142.241 25.16C141.537 25.16 140.907 24.9893 140.353 24.648C139.798 24.296 139.355 23.8213 139.025 23.224C138.705 22.6267 138.545 21.9547 138.545 21.208C138.545 20.4613 138.705 19.7893 139.025 19.192C139.355 18.5947 139.798 18.12 140.353 17.768C140.907 17.416 141.537 17.24 142.241 17.24C142.806 17.24 143.318 17.3627 143.777 17.608C144.235 17.8427 144.603 18.1733 144.881 18.6C145.169 19.016 145.329 19.5013 145.361 20.056V22.344C145.329 22.888 145.174 23.3733 144.897 23.8C144.619 24.2267 144.251 24.5627 143.793 24.808C143.334 25.0427 142.817 25.16 142.241 25.16ZM142.481 23.8C142.961 23.8 143.377 23.688 143.729 23.464C144.091 23.24 144.374 22.936 144.577 22.552C144.779 22.1573 144.881 21.7093 144.881 21.208C144.881 20.6853 144.774 20.232 144.561 19.848C144.358 19.464 144.075 19.16 143.713 18.936C143.361 18.712 142.945 18.6 142.465 18.6C141.985 18.6 141.563 18.712 141.201 18.936C140.838 19.16 140.55 19.4693 140.337 19.864C140.134 20.248 140.033 20.6907 140.033 21.192C140.033 21.704 140.134 22.1573 140.337 22.552C140.55 22.936 140.838 23.24 141.201 23.464C141.574 23.688 142.001 23.8 142.481 23.8ZM146.241 25H144.785V22.952L145.057 21.096L144.785 19.256V13.576H146.241V25ZM150.833 25.64L155.281 13.272H156.625L152.193 25.64H150.833ZM163.836 25L160.348 17.4H161.948L164.748 23.816H163.82L166.636 17.4H168.172L164.684 25H163.836ZM169.416 25V17.4H170.856V25H169.416ZM170.136 15.88C169.869 15.88 169.65 15.7947 169.48 15.624C169.309 15.4427 169.224 15.2187 169.224 14.952C169.224 14.696 169.309 14.4827 169.48 14.312C169.65 14.1307 169.869 14.04 170.136 14.04C170.402 14.04 170.621 14.1307 170.792 14.312C170.962 14.4827 171.048 14.696 171.048 14.952C171.048 15.2187 170.962 15.4427 170.792 15.624C170.621 15.7947 170.402 15.88 170.136 15.88ZM176.498 25.16C175.741 25.16 175.058 24.9893 174.45 24.648C173.842 24.296 173.362 23.8213 173.01 23.224C172.658 22.6267 172.482 21.9493 172.482 21.192C172.482 20.4453 172.653 19.7733 172.994 19.176C173.346 18.5787 173.815 18.1093 174.402 17.768C174.999 17.416 175.666 17.24 176.402 17.24C177.106 17.24 177.725 17.4 178.258 17.72C178.802 18.04 179.223 18.4827 179.522 19.048C179.831 19.6133 179.986 20.2533 179.986 20.968C179.986 21.0747 179.981 21.192 179.97 21.32C179.959 21.4373 179.938 21.576 179.906 21.736H173.49V20.536H179.138L178.61 21C178.61 20.488 178.519 20.056 178.338 19.704C178.157 19.3413 177.901 19.064 177.57 18.872C177.239 18.6693 176.839 18.568 176.37 18.568C175.879 18.568 175.447 18.6747 175.074 18.888C174.701 19.1013 174.413 19.4 174.21 19.784C174.007 20.168 173.906 20.6213 173.906 21.144C173.906 21.6773 174.013 22.1467 174.226 22.552C174.439 22.9467 174.743 23.256 175.138 23.48C175.533 23.6933 175.986 23.8 176.498 23.8C176.925 23.8 177.314 23.7253 177.666 23.576C178.029 23.4267 178.338 23.2027 178.594 22.904L179.522 23.848C179.159 24.2747 178.711 24.6 178.178 24.824C177.655 25.048 177.095 25.16 176.498 25.16ZM183.638 25L180.63 17.4H182.134L184.31 23.32H183.83L185.99 17.4H186.822L188.982 23.32H188.502L190.678 17.4H192.182L189.19 25H188.342L186.15 19.256H186.678L184.47 25H183.638ZM199.286 25.064L195.99 17.4H197.59L200.038 23.4H199.526L202.102 17.4H203.702L200.15 25.064H199.286ZM197.11 28.184L199.35 23.592L200.15 25.064L198.71 28.184H197.11ZM208.059 25.16C207.313 25.16 206.641 24.984 206.043 24.632C205.446 24.28 204.971 23.8053 204.619 23.208C204.267 22.6 204.091 21.9227 204.091 21.176C204.091 20.44 204.267 19.7787 204.619 19.192C204.971 18.5947 205.446 18.12 206.043 17.768C206.641 17.416 207.313 17.24 208.059 17.24C208.795 17.24 209.462 17.416 210.059 17.768C210.667 18.1093 211.147 18.5787 211.499 19.176C211.851 19.7733 212.027 20.44 212.027 21.176C212.027 21.9227 211.851 22.6 211.499 23.208C211.147 23.8053 210.667 24.28 210.059 24.632C209.462 24.984 208.795 25.16 208.059 25.16ZM208.059 23.768C208.539 23.768 208.966 23.656 209.339 23.432C209.713 23.208 210.006 22.904 210.219 22.52C210.433 22.1253 210.539 21.6773 210.539 21.176C210.539 20.6853 210.427 20.248 210.203 19.864C209.99 19.48 209.697 19.1813 209.323 18.968C208.961 18.744 208.539 18.632 208.059 18.632C207.579 18.632 207.153 18.744 206.779 18.968C206.406 19.1813 206.113 19.48 205.899 19.864C205.686 20.248 205.579 20.6853 205.579 21.176C205.579 21.6773 205.686 22.1253 205.899 22.52C206.113 22.904 206.406 23.208 206.779 23.432C207.153 23.656 207.579 23.768 208.059 23.768ZM216.706 25.16C216.087 25.16 215.527 25.0213 215.026 24.744C214.535 24.456 214.151 24.0613 213.874 23.56C213.596 23.0587 213.458 22.4773 213.458 21.816V17.4H214.898V21.752C214.898 22.168 214.967 22.5307 215.106 22.84C215.255 23.1387 215.468 23.368 215.746 23.528C216.023 23.688 216.348 23.768 216.722 23.768C217.287 23.768 217.73 23.592 218.05 23.24C218.37 22.8773 218.53 22.3813 218.53 21.752V17.4H219.97V21.816C219.97 22.4773 219.831 23.0587 219.554 23.56C219.276 24.0613 218.892 24.456 218.402 24.744C217.922 25.0213 217.356 25.16 216.706 25.16ZM221.9 25V17.4H223.34V25H221.9ZM223.34 20.664L222.796 20.424C222.796 19.4533 223.02 18.68 223.468 18.104C223.916 17.528 224.561 17.24 225.404 17.24C225.788 17.24 226.134 17.3093 226.444 17.448C226.753 17.576 227.041 17.7947 227.308 18.104L226.364 19.08C226.204 18.9093 226.028 18.7867 225.836 18.712C225.644 18.6373 225.42 18.6 225.164 18.6C224.63 18.6 224.193 18.7707 223.852 19.112C223.51 19.4533 223.34 19.9707 223.34 20.664ZM231.931 25V17.4H233.371V25H231.931ZM233.371 20.664L232.827 20.424C232.827 19.4533 233.051 18.68 233.499 18.104C233.947 17.528 234.592 17.24 235.435 17.24C235.819 17.24 236.166 17.3093 236.475 17.448C236.784 17.576 237.072 17.7947 237.339 18.104L236.395 19.08C236.235 18.9093 236.059 18.7867 235.867 18.712C235.675 18.6373 235.451 18.6 235.195 18.6C234.662 18.6 234.224 18.7707 233.883 19.112C233.542 19.4533 233.371 19.9707 233.371 20.664ZM241.623 25.16C240.866 25.16 240.183 24.9893 239.575 24.648C238.967 24.296 238.487 23.8213 238.135 23.224C237.783 22.6267 237.607 21.9493 237.607 21.192C237.607 20.4453 237.778 19.7733 238.119 19.176C238.471 18.5787 238.94 18.1093 239.527 17.768C240.124 17.416 240.791 17.24 241.527 17.24C242.231 17.24 242.85 17.4 243.383 17.72C243.927 18.04 244.348 18.4827 244.647 19.048C244.956 19.6133 245.111 20.2533 245.111 20.968C245.111 21.0747 245.106 21.192 245.095 21.32C245.084 21.4373 245.063 21.576 245.031 21.736H238.615V20.536H244.263L243.735 21C243.735 20.488 243.644 20.056 243.463 19.704C243.282 19.3413 243.026 19.064 242.695 18.872C242.364 18.6693 241.964 18.568 241.495 18.568C241.004 18.568 240.572 18.6747 240.199 18.888C239.826 19.1013 239.538 19.4 239.335 19.784C239.132 20.168 239.031 20.6213 239.031 21.144C239.031 21.6773 239.138 22.1467 239.351 22.552C239.564 22.9467 239.868 23.256 240.263 23.48C240.658 23.6933 241.111 23.8 241.623 23.8C242.05 23.8 242.439 23.7253 242.791 23.576C243.154 23.4267 243.463 23.2027 243.719 22.904L244.647 23.848C244.284 24.2747 243.836 24.6 243.303 24.824C242.78 25.048 242.22 25.16 241.623 25.16ZM246.681 25V17.4H248.121V25H246.681ZM251.817 25V20.408C251.817 19.8427 251.641 19.4 251.289 19.08C250.948 18.7493 250.516 18.584 249.993 18.584C249.641 18.584 249.326 18.6587 249.049 18.808C248.772 18.9573 248.548 19.1653 248.377 19.432C248.206 19.6987 248.121 20.0187 248.121 20.392L247.529 20.104C247.529 19.528 247.652 19.0267 247.897 18.6C248.153 18.1733 248.5 17.8427 248.937 17.608C249.374 17.3627 249.865 17.24 250.409 17.24C250.942 17.24 251.422 17.3573 251.849 17.592C252.286 17.8267 252.628 18.1573 252.873 18.584C253.129 19.0107 253.257 19.5173 253.257 20.104V25H251.817ZM256.953 25V20.408C256.953 19.8427 256.777 19.4 256.425 19.08C256.084 18.7493 255.657 18.584 255.145 18.584C254.793 18.584 254.473 18.6587 254.185 18.808C253.908 18.9573 253.684 19.1653 253.513 19.432C253.342 19.6987 253.257 20.0187 253.257 20.392L252.441 20.104C252.473 19.5173 252.628 19.016 252.905 18.6C253.193 18.1733 253.561 17.8427 254.009 17.608C254.457 17.3627 254.948 17.24 255.481 17.24C256.036 17.24 256.532 17.3573 256.969 17.592C257.406 17.8267 257.753 18.1573 258.009 18.584C258.276 19.0107 258.409 19.5227 258.409 20.12V25H256.953ZM263.601 25.16C262.907 25.16 262.278 24.9893 261.713 24.648C261.147 24.296 260.699 23.8213 260.368 23.224C260.049 22.6267 259.889 21.9547 259.889 21.208C259.889 20.4613 260.049 19.7893 260.368 19.192C260.699 18.5947 261.142 18.12 261.697 17.768C262.262 17.416 262.897 17.24 263.601 17.24C264.177 17.24 264.689 17.3627 265.137 17.608C265.595 17.8427 265.963 18.1733 266.241 18.6C266.518 19.016 266.673 19.5013 266.705 20.056V22.344C266.673 22.888 266.518 23.3733 266.241 23.8C265.974 24.2267 265.611 24.5627 265.153 24.808C264.705 25.0427 264.187 25.16 263.601 25.16ZM263.841 23.8C264.555 23.8 265.131 23.56 265.569 23.08C266.006 22.5893 266.225 21.9653 266.225 21.208C266.225 20.6853 266.123 20.232 265.921 19.848C265.729 19.4533 265.451 19.1493 265.089 18.936C264.726 18.712 264.305 18.6 263.825 18.6C263.345 18.6 262.918 18.712 262.545 18.936C262.182 19.16 261.894 19.4693 261.681 19.864C261.478 20.248 261.377 20.6907 261.377 21.192C261.377 21.704 261.478 22.1573 261.681 22.552C261.894 22.936 262.187 23.24 262.561 23.464C262.934 23.688 263.361 23.8 263.841 23.8ZM266.129 25V22.952L266.401 21.096L266.129 19.256V17.4H267.585V25H266.129ZM269.681 25V17.4H271.121V25H269.681ZM271.121 20.664L270.577 20.424C270.577 19.4533 270.801 18.68 271.249 18.104C271.697 17.528 272.342 17.24 273.185 17.24C273.569 17.24 273.916 17.3093 274.225 17.448C274.534 17.576 274.822 17.7947 275.089 18.104L274.145 19.08C273.985 18.9093 273.809 18.7867 273.617 18.712C273.425 18.6373 273.201 18.6 272.945 18.6C272.412 18.6 271.974 18.7707 271.633 19.112C271.292 19.4533 271.121 19.9707 271.121 20.664ZM280.967 25L277.415 21.112L280.935 17.4H282.679L278.759 21.496L278.823 20.664L282.823 25H280.967ZM276.103 25V13.576H277.543V25H276.103ZM286.035 25.16C285.608 25.16 285.203 25.1067 284.819 25C284.445 24.8827 284.099 24.7227 283.779 24.52C283.459 24.3067 283.181 24.056 282.947 23.768L283.875 22.84C284.152 23.1813 284.472 23.4373 284.835 23.608C285.197 23.768 285.603 23.848 286.051 23.848C286.499 23.848 286.845 23.7733 287.091 23.624C287.336 23.464 287.459 23.2453 287.459 22.968C287.459 22.6907 287.357 22.4773 287.155 22.328C286.963 22.168 286.712 22.04 286.403 21.944C286.093 21.8373 285.763 21.736 285.411 21.64C285.069 21.5333 284.744 21.4 284.435 21.24C284.125 21.08 283.869 20.8613 283.667 20.584C283.475 20.3067 283.379 19.9387 283.379 19.48C283.379 19.0213 283.491 18.6267 283.715 18.296C283.939 17.9547 284.248 17.6933 284.643 17.512C285.048 17.3307 285.533 17.24 286.099 17.24C286.696 17.24 287.224 17.3467 287.683 17.56C288.152 17.7627 288.536 18.072 288.835 18.488L287.907 19.416C287.693 19.1387 287.427 18.9253 287.107 18.776C286.797 18.6267 286.445 18.552 286.051 18.552C285.635 18.552 285.315 18.6267 285.091 18.776C284.877 18.9147 284.771 19.112 284.771 19.368C284.771 19.624 284.867 19.8213 285.059 19.96C285.251 20.0987 285.501 20.216 285.811 20.312C286.131 20.408 286.461 20.5093 286.803 20.616C287.144 20.712 287.469 20.8453 287.779 21.016C288.088 21.1867 288.339 21.416 288.531 21.704C288.733 21.992 288.835 22.3707 288.835 22.84C288.835 23.5547 288.579 24.12 288.067 24.536C287.565 24.952 286.888 25.16 286.035 25.16Z" fill="white"/>
</svg>
