<svg width="166" height="27" viewBox="0 0 166 27" fill="none" xmlns="http://www.w3.org/2000/svg">
<g opacity="0.6" filter="url(#filter0_d_242_4334)">
<path d="M4.48363 22V5.344H6.06763L6.73963 7.96V22H4.48363ZM16.0036 22L5.77963 8.344L6.06763 5.344L16.3156 18.976L16.0036 22ZM16.0036 22L15.3316 19.528V5.344H17.5876V22H16.0036ZM26.3467 22.24C25.2267 22.24 24.2187 21.976 23.3227 21.448C22.4267 20.92 21.7147 20.208 21.1867 19.312C20.6587 18.4 20.3947 17.384 20.3947 16.264C20.3947 15.16 20.6587 14.168 21.1867 13.288C21.7147 12.392 22.4267 11.68 23.3227 11.152C24.2187 10.624 25.2267 10.36 26.3467 10.36C27.4507 10.36 28.4507 10.624 29.3467 11.152C30.2587 11.664 30.9787 12.368 31.5067 13.264C32.0347 14.16 32.2987 15.16 32.2987 16.264C32.2987 17.384 32.0347 18.4 31.5067 19.312C30.9787 20.208 30.2587 20.92 29.3467 21.448C28.4507 21.976 27.4507 22.24 26.3467 22.24ZM26.3467 20.152C27.0667 20.152 27.7067 19.984 28.2667 19.648C28.8267 19.312 29.2667 18.856 29.5867 18.28C29.9067 17.688 30.0667 17.016 30.0667 16.264C30.0667 15.528 29.8987 14.872 29.5627 14.296C29.2427 13.72 28.8027 13.272 28.2427 12.952C27.6987 12.616 27.0667 12.448 26.3467 12.448C25.6267 12.448 24.9867 12.616 24.4267 12.952C23.8667 13.272 23.4267 13.72 23.1067 14.296C22.7867 14.872 22.6267 15.528 22.6267 16.264C22.6267 17.016 22.7867 17.688 23.1067 18.28C23.4267 18.856 23.8667 19.312 24.4267 19.648C24.9867 19.984 25.6267 20.152 26.3467 20.152ZM41.5966 22V19.936H46.2286C47.4606 19.936 48.5406 19.672 49.4686 19.144C50.3966 18.6 51.1166 17.856 51.6286 16.912C52.1566 15.968 52.4206 14.88 52.4206 13.648C52.4206 12.432 52.1566 11.352 51.6286 10.408C51.1006 9.464 50.3726 8.728 49.4446 8.2C48.5166 7.672 47.4446 7.408 46.2286 7.408H41.6206V5.344H46.2766C47.4926 5.344 48.6126 5.552 49.6366 5.968C50.6766 6.384 51.5726 6.968 52.3246 7.72C53.0926 8.472 53.6846 9.352 54.1006 10.36C54.5326 11.368 54.7486 12.472 54.7486 13.672C54.7486 14.856 54.5326 15.96 54.1006 16.984C53.6846 17.992 53.1006 18.872 52.3486 19.624C51.5966 20.376 50.7006 20.96 49.6606 21.376C48.6366 21.792 47.5246 22 46.3246 22H41.5966ZM40.1086 22V5.344H42.3646V22H40.1086ZM62.3383 22.24C61.2983 22.24 60.3543 21.984 59.5063 21.472C58.6583 20.944 57.9863 20.232 57.4902 19.336C57.0103 18.44 56.7703 17.432 56.7703 16.312C56.7703 15.192 57.0103 14.184 57.4902 13.288C57.9863 12.392 58.6503 11.68 59.4823 11.152C60.3303 10.624 61.2823 10.36 62.3383 10.36C63.2023 10.36 63.9703 10.544 64.6423 10.912C65.3303 11.264 65.8823 11.76 66.2983 12.4C66.7143 13.024 66.9463 13.752 66.9943 14.584V18.016C66.9463 18.832 66.7143 19.56 66.2983 20.2C65.8983 20.84 65.3543 21.344 64.6663 21.712C63.9943 22.064 63.2183 22.24 62.3383 22.24ZM62.6983 20.2C63.7703 20.2 64.6343 19.84 65.2903 19.12C65.9463 18.384 66.2743 17.448 66.2743 16.312C66.2743 15.528 66.1223 14.848 65.8183 14.272C65.5303 13.68 65.1143 13.224 64.5703 12.904C64.0263 12.568 63.3943 12.4 62.6743 12.4C61.9543 12.4 61.3143 12.568 60.7543 12.904C60.2103 13.24 59.7783 13.704 59.4583 14.296C59.1543 14.872 59.0023 15.536 59.0023 16.288C59.0023 17.056 59.1543 17.736 59.4583 18.328C59.7783 18.904 60.2183 19.36 60.7783 19.696C61.3383 20.032 61.9783 20.2 62.6983 20.2ZM66.1303 22V18.928L66.5383 16.144L66.1303 13.384V10.6H68.3143V22H66.1303ZM73.1641 22V5.824H75.3241V22H73.1641ZM70.3561 12.568V10.6H78.1321V12.568H70.3561ZM84.7445 22.24C83.7045 22.24 82.7605 21.984 81.9125 21.472C81.0645 20.944 80.3925 20.232 79.8965 19.336C79.4165 18.44 79.1765 17.432 79.1765 16.312C79.1765 15.192 79.4165 14.184 79.8965 13.288C80.3925 12.392 81.0565 11.68 81.8885 11.152C82.7365 10.624 83.6885 10.36 84.7445 10.36C85.6085 10.36 86.3765 10.544 87.0485 10.912C87.7365 11.264 88.2885 11.76 88.7045 12.4C89.1205 13.024 89.3525 13.752 89.4005 14.584V18.016C89.3525 18.832 89.1205 19.56 88.7045 20.2C88.3045 20.84 87.7605 21.344 87.0725 21.712C86.4005 22.064 85.6245 22.24 84.7445 22.24ZM85.1045 20.2C86.1765 20.2 87.0405 19.84 87.6965 19.12C88.3525 18.384 88.6805 17.448 88.6805 16.312C88.6805 15.528 88.5285 14.848 88.2245 14.272C87.9365 13.68 87.5205 13.224 86.9765 12.904C86.4325 12.568 85.8005 12.4 85.0805 12.4C84.3605 12.4 83.7205 12.568 83.1605 12.904C82.6165 13.24 82.1845 13.704 81.8645 14.296C81.5605 14.872 81.4085 15.536 81.4085 16.288C81.4085 17.056 81.5605 17.736 81.8645 18.328C82.1845 18.904 82.6245 19.36 83.1845 19.696C83.7445 20.032 84.3845 20.2 85.1045 20.2ZM88.5365 22V18.928L88.9445 16.144L88.5365 13.384V10.6H90.7205V22H88.5365ZM99.2414 22V5.344H101.497V22H99.2414ZM100.777 14.68V12.616H109.465V14.68H100.777ZM100.777 7.408V5.344H109.873V7.408H100.777ZM117.19 22.24C116.07 22.24 115.062 21.976 114.166 21.448C113.27 20.92 112.558 20.208 112.03 19.312C111.502 18.4 111.238 17.384 111.238 16.264C111.238 15.16 111.502 14.168 112.03 13.288C112.558 12.392 113.27 11.68 114.166 11.152C115.062 10.624 116.07 10.36 117.19 10.36C118.294 10.36 119.294 10.624 120.19 11.152C121.102 11.664 121.822 12.368 122.35 13.264C122.878 14.16 123.142 15.16 123.142 16.264C123.142 17.384 122.878 18.4 122.35 19.312C121.822 20.208 121.102 20.92 120.19 21.448C119.294 21.976 118.294 22.24 117.19 22.24ZM117.19 20.152C117.91 20.152 118.55 19.984 119.11 19.648C119.67 19.312 120.11 18.856 120.43 18.28C120.75 17.688 120.91 17.016 120.91 16.264C120.91 15.528 120.742 14.872 120.406 14.296C120.086 13.72 119.646 13.272 119.086 12.952C118.542 12.616 117.91 12.448 117.19 12.448C116.47 12.448 115.83 12.616 115.27 12.952C114.71 13.272 114.27 13.72 113.95 14.296C113.63 14.872 113.47 15.528 113.47 16.264C113.47 17.016 113.63 17.688 113.95 18.28C114.27 18.856 114.71 19.312 115.27 19.648C115.83 19.984 116.47 20.152 117.19 20.152ZM130.16 22.24C129.232 22.24 128.392 22.032 127.64 21.616C126.904 21.184 126.328 20.592 125.912 19.84C125.496 19.088 125.288 18.216 125.288 17.224V10.6H127.448V17.128C127.448 17.752 127.552 18.296 127.76 18.76C127.984 19.208 128.304 19.552 128.72 19.792C129.136 20.032 129.624 20.152 130.184 20.152C131.032 20.152 131.696 19.888 132.176 19.36C132.656 18.816 132.896 18.072 132.896 17.128V10.6H135.056V17.224C135.056 18.216 134.848 19.088 134.432 19.84C134.016 20.592 133.44 21.184 132.704 21.616C131.984 22.032 131.136 22.24 130.16 22.24ZM146.015 22V15.352C146.015 14.488 145.743 13.776 145.199 13.216C144.655 12.656 143.951 12.376 143.087 12.376C142.511 12.376 141.999 12.504 141.551 12.76C141.103 13.016 140.751 13.368 140.495 13.816C140.239 14.264 140.111 14.776 140.111 15.352L139.223 14.848C139.223 13.984 139.415 13.216 139.799 12.544C140.183 11.872 140.719 11.344 141.407 10.96C142.095 10.56 142.871 10.36 143.735 10.36C144.599 10.36 145.359 10.576 146.015 11.008C146.687 11.44 147.215 12.008 147.599 12.712C147.983 13.4 148.175 14.136 148.175 14.92V22H146.015ZM137.951 22V10.6H140.111V22H137.951ZM155.924 22.24C154.868 22.24 153.924 21.984 153.092 21.472C152.26 20.944 151.596 20.232 151.1 19.336C150.62 18.44 150.38 17.432 150.38 16.312C150.38 15.192 150.62 14.184 151.1 13.288C151.596 12.392 152.26 11.68 153.092 11.152C153.924 10.624 154.868 10.36 155.924 10.36C156.772 10.36 157.54 10.544 158.228 10.912C158.916 11.264 159.468 11.76 159.884 12.4C160.316 13.024 160.556 13.752 160.604 14.584V18.016C160.556 18.832 160.324 19.56 159.908 20.2C159.492 20.84 158.94 21.344 158.252 21.712C157.564 22.064 156.788 22.24 155.924 22.24ZM156.284 20.2C157.004 20.2 157.628 20.032 158.156 19.696C158.7 19.36 159.124 18.904 159.428 18.328C159.732 17.736 159.884 17.064 159.884 16.312C159.884 15.528 159.724 14.848 159.404 14.272C159.1 13.696 158.676 13.24 158.132 12.904C157.604 12.568 156.98 12.4 156.26 12.4C155.54 12.4 154.908 12.568 154.364 12.904C153.82 13.24 153.388 13.704 153.068 14.296C152.764 14.872 152.612 15.536 152.612 16.288C152.612 17.056 152.764 17.736 153.068 18.328C153.388 18.904 153.82 19.36 154.364 19.696C154.924 20.032 155.564 20.2 156.284 20.2ZM161.924 22H159.74V18.928L160.148 16.144L159.74 13.384V4.864H161.924V22Z" fill="#E50255"/>
</g>
<defs>
<filter id="filter0_d_242_4334" x="0.483398" y="0.864014" width="165.44" height="25.376" filterUnits="userSpaceOnUse" color-interpolation-filters="sRGB">
<feFlood flood-opacity="0" result="BackgroundImageFix"/>
<feColorMatrix in="SourceAlpha" type="matrix" values="0 0 0 0 0 0 0 0 0 0 0 0 0 0 0 0 0 0 127 0" result="hardAlpha"/>
<feOffset/>
<feGaussianBlur stdDeviation="2"/>
<feComposite in2="hardAlpha" operator="out"/>
<feColorMatrix type="matrix" values="0 0 0 0 1 0 0 0 0 0.025 0 0 0 0 0.025 0 0 0 0.5 0"/>
<feBlend mode="normal" in2="BackgroundImageFix" result="effect1_dropShadow_242_4334"/>
<feBlend mode="normal" in="SourceGraphic" in2="effect1_dropShadow_242_4334" result="shape"/>
</filter>
</defs>
</svg>
